<?xml version="1.0" encoding="UTF-8"?>
<svg id="Layer_2" data-name="Layer 2" xmlns="http://www.w3.org/2000/svg" viewBox="0 0 661.01 581.74">
  <defs>
    <style>
      .cls-1 {
        fill: #fff;
        stroke-width: 0px;
      }
    </style>
  </defs>
  <g id="Layer_1-2" data-name="Layer 1">
    <g>
      <path class="cls-1" d="m554,580.75c-2.6-1.2-4.4-2.9-5.85-5.6-1.1-2.1-1.15-2.6-1.15-13.45s.05-11.35,1.05-13.25c2.4-4.4,6.1-6.75,10.7-6.75s8.55,2.3,10.65,6.25c1.05,1.9,1.1,2.65,1.1,13.75s-.05,11.85-1.1,13.85c-2.85,5.3-9.95,7.7-15.4,5.2Z"/>
      <path class="cls-1" d="m514.85,539.95c-8.7-2.7-11.2-13.4-4.65-19.8,1.65-1.6,3.1-2.45,4.7-2.85,2.85-.75,19.9-.8,22.4-.1,2.6.75,4.95,2.45,6.65,4.9,1.25,1.75,1.55,2.75,1.7,5.65.2,3,.05,3.85-1.15,6.2-1.45,3.05-4.15,5.25-7.5,6.2-2.9.8-19.45.65-22.15-.2h0Z"/>
      <path class="cls-1" d="m580.75,537.9c-7.5-3.25-9.5-13.15-3.85-19.15,3.1-3.25,4.3-3.55,16.6-3.55,10.5,0,11.1.05,13.55,1.2,7.1,3.3,8.95,12.35,3.75,18.35-3.1,3.7-4.2,3.95-17.05,3.9-8.95,0-11.6-.15-13-.75Z"/>
      <path class="cls-1" d="m557.3,513.65c-3.5-1.05-6.35-3.7-7.8-7.15-1.1-2.6-1.05-22.05.05-24.7,1.8-4.35,6-7.1,10.95-7.1,3.55,0,6.3,1.15,8.6,3.55,2.9,3.1,3.15,4.3,3.15,16.05s-.3,13.1-3.4,16.2-7.85,4.3-11.55,3.15Z"/>
      <path class="cls-1" d="m92.3,503.15c-5.1-1.5-8.55-6.15-8.55-11.55.05-5.05,3.3-9.55,8.05-11.05,2.3-.75,6.75-.85,42.95-.85,43.65,0,43.15-.05,46.75,2.7.9.7,2.3,2.55,3,4.05,2.75,5.55.8,12.2-4.45,15.5l-2.45,1.5-41.8.1c-26.45.05-42.45-.1-43.5-.4h0Z"/>
      <path class="cls-1" d="m223.45,503c-4.9-1.55-8.2-6.1-8.2-11.3,0-3.5,1.8-7.35,4.35-9.25,3.75-2.9-3.3-2.75,119.4-2.75s116.3-.25,120,3.35c5,4.85,5.05,12.4,0,17.3-3.75,3.65,6.2,3.35-119.95,3.3-91.4,0-113.95-.15-115.6-.65h0Z"/>
      <path class="cls-1" d="m34.4,442.9c-10.55-2.3-20.85-9.2-26.8-17.9-2.7-4-5.55-10.3-6.65-14.8-.9-3.6-.95-8-.95-116.75v-113l1.4-4.4c2.5-8.1,6.15-14.1,11.65-19.4,5.7-5.4,10.8-8.4,18.55-10.8l4.4-1.4h589l4.4,1.4c13.25,4.15,23.3,13.05,28.3,25.1,3.6,8.55,3.3-2.1,3.3,123v112.5l-1.15,4.25c-4.4,16.6-17.65,29.15-34,32.3-5.4,1.05-586.7.95-591.45-.1h0Zm94.75-57.05l.1-34.15H23.7l.15,26.9.15,26.85,1.35,2.85c2.6,5.55,8,9.95,13.9,11.2,2.05.45,13.95.6,46.25.55l43.5-.1.15-34.1Zm402.5-.05l.1-34.1-189.35.1-189.4.15-.15,33.5c-.05,18.45,0,33.8.15,34.15.15.5,38.3.6,189.35.5l189.15-.15.15-34.15Zm92.75,33c5.75-2.35,10.1-6.95,11.85-12.55.95-2.95,1-4.65,1-28.85v-25.7h-81.5v33.9c0,18.65.15,34.1.35,34.3.2.2,15,.3,32.9.2l32.5-.15,2.9-1.15ZM76.75,293.2v-34.5H23.75v69h53v-34.5h0Zm79.9.15l-.15-34.4h-55.5l-.15,34.4-.1,34.35h56l-.1-34.35h0Zm79.6.25v-34.4c0-.35-9.4-.45-27.85-.4l-27.9.15-.15,33.7c-.05,18.55,0,34.05.1,34.4.2.55,5.45.65,28.05.55l27.75-.15v-33.85h0Zm80-.4v-34.5l-27.85.1-27.9.15-.15,33.75c-.05,18.55,0,34.05.15,34.4.15.45,6.25.6,28,.6h27.75v-34.5h0Zm79.9.15l-.15-34.4-27.85-.15-27.9-.1v69h56l-.1-34.35h0Zm79.5,0l-.15-34.4h-55.5l-.15,33.75c-.05,18.55,0,34.05.15,34.4.15.45,6.25.6,28,.6h27.75l-.1-34.35h0Zm80,0l-.15-34.4-27.85-.15-27.9-.1v69h56l-.1-34.35h0Zm81.5-38l-.15-72.4-1.65-3.5c-1.95-4.15-5.35-7.55-9.5-9.6l-2.85-1.4-46.1-.15-46.15-.1v66.45l19.9.15,19.85.15,2.7,1.55c1.5.85,3.4,2.45,4.25,3.65l1.55,2.15.15,42.05c.05,23.15.2,42.4.35,42.75.15.45,6.45.6,29,.6h28.75l-.1-72.35h0ZM108.75,201.45v-33.3l-35.35.15-35.4.15-3,1.45c-3.85,1.9-7.65,5.7-9.55,9.55l-1.45,3-.15,26.15-.15,26.1h85.05v-33.25Zm79.5,0v-33.25l-27.55-.1c-25.4-.15-27.6-.1-28,.7-.25.45-.45,15-.45,33.35v32.55h56v-33.25Zm79.8.75c.05-17.75,0-32.65-.15-33.1-.2-.85-1.95-.9-27.95-.9h-27.7v66.5l27.85-.1,27.85-.15.1-32.25Zm79.7-.75v-33.25h-56v66.5h56v-33.25Zm79.5,0v-33.25l-27.35-.1c-15.1-.1-27.7.05-28,.3-.5.35-.65,7.6-.65,33.35v32.95h56v-33.25Zm79.5,0v-33.25h-55.5v66.5h55.5v-33.25Z"/>
      <path class="cls-1" d="m199.5,108.2c-6.9-.5-11.25-4.9-11.25-11.4,0-1.7.3-3.85.7-4.8,1.1-2.6,3.6-5.1,6.3-6.25,2.45-1.05,2.55-1.05,41.4-.95l38.95.15,2.45,1.5c6.2,3.85,7.6,12.55,2.85,17.8-1,1.1-2.75,2.5-3.85,3.1l-2.05,1.1h-36c-19.8,0-37.55-.1-39.5-.25h0Z"/>
      <path class="cls-1" d="m322.75,108.25c-5.7-1.2-9.45-5.8-9.5-11.7,0-5.2,3.45-10,8.15-11.3,1.55-.45,22.05-.55,78.85-.45l76.75.15,2.05,1.1c3.9,2.1,6.2,6.15,6.2,10.85-.05,4.45-2.4,8.15-6.55,10.4l-2.2,1.15-76,.05c-41.8.05-76.8-.05-77.75-.25h0Z"/>
      <path class="cls-1" d="m524.5,108.2c-5.65-.85-9.75-5.8-9.75-11.65,0-4.85,2.4-8.65,6.75-10.65,2.45-1.15,2.75-1.2,19.05-1.2,17.65,0,18.9.15,22.15,2.55.8.6,2.1,2.2,2.85,3.65,3.8,6.9-.15,15.6-7.9,17.3-2.75.6-29.15.6-33.15,0h0Z"/>
      <path class="cls-1" d="m147.1,42.25c0,23.35-18.95,42.3-42.3,42.3s-42.25-18.95-42.25-42.3S81.5,0,104.8,0s42.3,18.95,42.3,42.25Zm-23.85.05c0-10.2-8.25-18.45-18.4-18.45s-18.45,8.25-18.45,18.45,8.25,18.4,18.45,18.4,18.4-8.25,18.4-18.4Z"/>
    </g>
  </g>
</svg>